<?xml version="1.0" encoding="UTF-8"?>
<svg id="Layer_2" data-name="Layer 2" xmlns="http://www.w3.org/2000/svg" viewBox="0 0 73.04 73.03">
  <defs>
    <style>
      .cls-1 {
        fill: #302f92;
      }

      .cls-2 {
        fill: none;
      }

      .cls-3 {
        fill: #b4ff8c;
      }
    </style>
  </defs>
  <g id="Layer_1-2" data-name="Layer 1">
    <g>
      <path class="cls-2" d="M56.04,36.93c0,10.76-8.76,19.51-19.52,19.51s-19.51-8.75-19.51-19.51,8.75-19.51,19.51-19.51,19.52,8.75,19.52,19.51Z"/>
      <path class="cls-2" d="M36.52,0c-10.08,0-19.21,4.09-25.82,10.7S0,26.43,0,36.52s4.09,19.21,10.7,25.81c6.61,6.61,15.74,10.7,25.82,10.7,6.23,0,12.08-1.56,17.21-4.31l-5.55-7.6-.52-.71c-.54.26-1.09.5-1.65.71-2.94,1.16-6.14,1.8-9.49,1.8s-6.55-.64-9.49-1.8c-7.09-2.78-12.66-8.61-15.11-15.86-.9-2.61-1.38-5.42-1.38-8.33s.48-5.72,1.38-8.33c2.73-8.07,9.31-14.36,17.55-16.68,2.24-.64,4.61-.98,7.05-.98s4.81.34,7.05.98c8.23,2.31,14.82,8.6,17.55,16.65.9,2.62,1.39,5.44,1.39,8.36s-.49,5.74-1.39,8.36c-1.44,4.26-3.97,8.02-7.24,10.97l3.55,4.86,2.5,3.42c.83-.7,1.64-1.44,2.41-2.21,6.61-6.6,10.7-15.73,10.7-25.81C73.04,16.35,56.69,0,36.52,0Z"/>
      <path class="cls-1" d="M56.04,36.93c0,10.76-8.76,19.51-19.52,19.51s-19.51-8.75-19.51-19.51,8.75-19.51,19.51-19.51,19.52,8.75,19.52,19.51Z"/>
      <path class="cls-1" d="M36.52,0c-10.08,0-19.21,4.09-25.82,10.7S0,26.43,0,36.52s4.09,19.21,10.7,25.81c6.61,6.61,15.74,10.7,25.82,10.7,6.23,0,12.08-1.56,17.21-4.31l-5.55-7.6-.52-.71c-.54.26-1.09.5-1.65.71-2.94,1.16-6.14,1.8-9.49,1.8s-6.55-.64-9.49-1.8c-7.09-2.78-12.66-8.61-15.11-15.86-.9-2.61-1.38-5.42-1.38-8.33s.48-5.72,1.38-8.33c2.73-8.07,9.31-14.36,17.55-16.68,2.24-.64,4.61-.98,7.05-.98s4.81.34,7.05.98c8.23,2.31,14.82,8.6,17.55,16.65.9,2.62,1.39,5.44,1.39,8.36s-.49,5.74-1.39,8.36c-1.44,4.26-3.97,8.02-7.24,10.97l3.55,4.86,2.5,3.42c.83-.7,1.64-1.44,2.41-2.21,6.61-6.6,10.7-15.73,10.7-25.81C73.04,16.35,56.69,0,36.52,0Z"/>
      <path class="cls-2" d="M56.04,36.93c0,10.76-8.76,19.51-19.52,19.51s-19.51-8.75-19.51-19.51,8.75-19.51,19.51-19.51,19.52,8.75,19.52,19.51Z"/>
      <path class="cls-2" d="M48.18,61.12h-2.17c.56-.21,1.11-.45,1.65-.71l.52.71Z"/>
      <path class="cls-3" d="M44.29,42.8c.45-.71,1.38-.91,2.08-.46.71.45.91,1.38.46,2.08-2.04,3.21-5.98,5.22-10.32,5.22s-8.27-2.01-10.32-5.22c-.45-.7-.24-1.63.46-2.08.7-.45,1.63-.24,2.08.46,1.47,2.31,4.44,3.82,7.77,3.82s6.3-1.51,7.77-3.82Z"/>
    </g>
  </g>
</svg>