<?xml version="1.0" encoding="UTF-8"?>
<svg id="Layer_2" data-name="Layer 2" xmlns="http://www.w3.org/2000/svg" viewBox="0 0 374.55 73.03">
  <defs>
    <style>
      .cls-1 {
        fill: #302f92;
      }

      .cls-2 {
        fill: none;
      }

      .cls-3 {
        fill: #a3b6cb;
      }

      .cls-4 {
        fill: #b4ff8c;
      }
    </style>
  </defs>
  <g id="Layer_1-2" data-name="Layer 1">
    <g>
      <path class="cls-2" d="M56.04,36.93c0,10.76-8.76,19.51-19.52,19.51s-19.51-8.75-19.51-19.51,8.75-19.51,19.51-19.51,19.52,8.75,19.52,19.51Z"/>
      <path class="cls-2" d="M36.52,0c-10.08,0-19.21,4.09-25.82,10.7S0,26.43,0,36.52s4.09,19.21,10.7,25.81c6.61,6.61,15.74,10.7,25.82,10.7,6.23,0,12.08-1.56,17.21-4.31l-5.55-7.6-.52-.71c-.54.26-1.09.5-1.65.71-2.94,1.16-6.14,1.8-9.49,1.8s-6.55-.64-9.49-1.8c-7.09-2.78-12.66-8.61-15.11-15.86-.9-2.61-1.38-5.42-1.38-8.33s.48-5.72,1.38-8.33c2.73-8.07,9.31-14.36,17.55-16.68,2.24-.64,4.61-.98,7.05-.98s4.81.34,7.05.98c8.23,2.31,14.82,8.6,17.55,16.65.9,2.62,1.39,5.44,1.39,8.36s-.49,5.74-1.39,8.36c-1.44,4.26-3.97,8.02-7.24,10.97l3.55,4.86,2.5,3.42c.83-.7,1.64-1.44,2.41-2.21,6.61-6.6,10.7-15.73,10.7-25.81C73.04,16.35,56.69,0,36.52,0Z"/>
      <path class="cls-1" d="M56.04,36.93c0,10.76-8.76,19.51-19.52,19.51s-19.51-8.75-19.51-19.51,8.75-19.51,19.51-19.51,19.52,8.75,19.52,19.51Z"/>
      <path class="cls-1" d="M36.52,0c-10.08,0-19.21,4.09-25.82,10.7S0,26.43,0,36.52s4.09,19.21,10.7,25.81c6.61,6.61,15.74,10.7,25.82,10.7,6.23,0,12.08-1.56,17.21-4.31l-5.55-7.6-.52-.71c-.54.26-1.09.5-1.65.71-2.94,1.16-6.14,1.8-9.49,1.8s-6.55-.64-9.49-1.8c-7.09-2.78-12.66-8.61-15.11-15.86-.9-2.61-1.38-5.42-1.38-8.33s.48-5.72,1.38-8.33c2.73-8.07,9.31-14.36,17.55-16.68,2.24-.64,4.61-.98,7.05-.98s4.81.34,7.05.98c8.23,2.31,14.82,8.6,17.55,16.65.9,2.62,1.39,5.44,1.39,8.36s-.49,5.74-1.39,8.36c-1.44,4.26-3.97,8.02-7.24,10.97l3.55,4.86,2.5,3.42c.83-.7,1.64-1.44,2.41-2.21,6.61-6.6,10.7-15.73,10.7-25.81C73.04,16.35,56.69,0,36.52,0Z"/>
      <path class="cls-2" d="M56.04,36.93c0,10.76-8.76,19.51-19.52,19.51s-19.51-8.75-19.51-19.51,8.75-19.51,19.51-19.51,19.52,8.75,19.52,19.51Z"/>
      <path class="cls-2" d="M48.18,61.12h-2.17c.56-.21,1.11-.45,1.65-.71l.52.71Z"/>
      <path class="cls-4" d="M44.29,42.8c.45-.71,1.38-.91,2.08-.46.71.45.91,1.38.46,2.08-2.04,3.21-5.98,5.22-10.32,5.22s-8.27-2.01-10.32-5.22c-.45-.7-.24-1.63.46-2.08.7-.45,1.63-.24,2.08.46,1.47,2.31,4.44,3.82,7.77,3.82s6.3-1.51,7.77-3.82Z"/>
    </g>
    <path class="cls-3" d="M234.63,32.95V.07h5.81v27.88h12.92v5h-18.73Z"/>
    <path class="cls-3" d="M282.83,8.09c-1.31-2.53-3.14-4.5-5.49-5.89-2.33-1.4-5.09-2.1-8.26-2.1s-5.92.7-8.28,2.1c-2.35,1.39-4.18,3.36-5.48,5.89-1.32,2.55-1.97,5.52-1.97,8.93s.65,6.42,1.97,8.95c1.3,2.54,3.13,4.51,5.48,5.91,2.36,1.39,5.13,2.09,8.28,2.09s5.93-.7,8.26-2.09c2.35-1.4,4.18-3.37,5.49-5.91,1.31-2.53,1.97-5.51,1.97-8.95s-.66-6.38-1.97-8.93ZM277.87,23.4c-.82,1.8-1.98,3.19-3.48,4.17-1.5.99-3.27,1.48-5.31,1.48s-3.84-.49-5.36-1.48c-1.52-.98-2.68-2.37-3.5-4.17-.83-1.81-1.24-3.93-1.24-6.38s.41-4.58,1.24-6.37c.82-1.81,1.98-3.21,3.5-4.2,1.52-.99,3.31-1.49,5.36-1.49s3.81.5,5.31,1.49,2.66,2.39,3.48,4.2c.84,1.79,1.26,3.92,1.26,6.37s-.42,4.57-1.26,6.38Z"/>
    <path class="cls-3" d="M298.63,33.97c-2.44,0-4.61-.46-6.5-1.36-1.89-.9-3.4-2.17-4.52-3.81-1.11-1.63-1.74-3.56-1.88-5.79l5.32-.93c.09,2.22.86,4,2.31,5.35,1.46,1.35,3.27,2.02,5.45,2.02,1.91,0,3.42-.47,4.52-1.42,1.09-.94,1.64-2.11,1.64-3.48,0-1.14-.4-2.1-1.21-2.85-.81-.77-2.14-1.42-3.97-1.96l-4.49-1.26c-2.82-.78-4.89-1.87-6.22-3.28-1.33-1.42-1.98-3.27-1.98-5.57,0-1.89.43-3.54,1.28-4.96.86-1.43,2.1-2.55,3.71-3.36,1.6-.81,3.52-1.21,5.75-1.21,2.03,0,3.83.38,5.39,1.15,1.56.76,2.82,1.84,3.77,3.24.94,1.39,1.5,3.03,1.66,4.92l-5.14,1.13c-.12-1.83-.71-3.29-1.76-4.37-1.05-1.08-2.39-1.62-4.01-1.62s-2.82.44-3.77,1.32c-.95.87-1.42,1.96-1.42,3.28,0,1.15.37,2.08,1.13,2.79.75.72,1.95,1.32,3.6,1.8l4.45,1.26c3.01.76,5.21,1.86,6.62,3.32,1.42,1.46,2.13,3.36,2.13,5.69,0,1.96-.49,3.68-1.46,5.18-.96,1.5-2.32,2.67-4.09,3.52-1.77.84-3.87,1.26-6.3,1.26Z"/>
    <path class="cls-3" d="M318.89,32.95V5.14h-9.13V.07h24.1v5.06h-9.15v27.81h-5.83Z"/>
    <path class="cls-3" d="M337.54,12.62l.46-1.67c.96.28,1.83.24,2.63-.1.79-.36,1.43-.96,1.92-1.81.5-.84.75-1.84.75-2.98-.91.39-1.74.51-2.5.35-.75-.15-1.35-.52-1.81-1.1s-.69-1.26-.69-2.04c0-.96.3-1.73.92-2.31.63-.58,1.4-.88,2.31-.88,1.08,0,1.96.44,2.63,1.31s1,2.18,1,3.92-.33,3.27-.98,4.5c-.64,1.24-1.54,2.11-2.69,2.63-1.14.5-2.45.56-3.94.19Z"/>
    <path class="cls-3" d="M348.82,32.95V.07h7.38l12.71,25.83h.08V.07h5.56v32.88h-7.38l-12.73-25.73h-.1v25.73h-5.52Z"/>
    <path class="cls-3" d="M234.63,72.95v-32.88h19.21v5.06h-13.4v9.65h10.65v4.54h-10.65v13.63h-5.81Z"/>
    <path class="cls-3" d="M284.38,47.11c-1.31-2.54-3.14-4.5-5.48-5.89-2.34-1.4-5.09-2.1-8.25-2.1s-5.92.7-8.27,2.1c-2.35,1.39-4.18,3.35-5.48,5.89-1.31,2.53-1.97,5.51-1.97,8.91s.66,6.41,1.97,8.94c1.3,2.54,3.13,4.51,5.48,5.91,2.35,1.38,5.11,2.08,8.27,2.08s5.91-.7,8.25-2.08c2.34-1.4,4.17-3.37,5.48-5.91,1.3-2.53,1.96-5.51,1.96-8.94s-.66-6.38-1.96-8.91ZM279.42,62.4c-.82,1.79-1.98,3.18-3.47,4.16-1.5.99-3.27,1.48-5.3,1.48s-3.84-.49-5.36-1.48c-1.51-.98-2.68-2.37-3.5-4.16-.82-1.81-1.23-3.93-1.23-6.38s.41-4.57,1.23-6.37c.82-1.8,1.99-3.2,3.5-4.18,1.52-1,3.3-1.5,5.36-1.5s3.8.5,5.3,1.5c1.49.98,2.65,2.38,3.47,4.18.84,1.8,1.26,3.92,1.26,6.37s-.42,4.57-1.26,6.38Z"/>
    <path class="cls-3" d="M300.91,72.95c-2.55,0-4.75-.49-6.59-1.46-1.84-.98-3.26-2.37-4.27-4.15-1-1.78-1.5-3.9-1.5-6.37v-20.93h5.62v20.75c0,2.13.6,3.87,1.8,5.22,1.2,1.35,2.84,2.02,4.93,2.02s3.71-.65,4.89-1.96c1.18-1.32,1.78-3.09,1.78-5.32v-20.71h5.66v20.93c0,2.47-.51,4.59-1.52,6.37-1,1.78-2.42,3.16-4.27,4.15-1.85.97-4.03,1.46-6.55,1.46Z"/>
    <path class="cls-3" d="M317.49,72.95v-32.88h7.38l12.71,25.83h.08v-25.83h5.56v32.88h-7.38l-12.73-25.73h-.1v25.73h-5.52Z"/>
    <path class="cls-3" d="M370.4,44.37c-2.77-2.86-6.77-4.29-12.02-4.29h-11.42v32.87h11.37c5.28,0,9.3-1.43,12.07-4.29,2.76-2.86,4.14-6.9,4.14-12.12s-1.38-9.31-4.14-12.17ZM366.08,65.12c-1.78,2.01-4.38,3.02-7.81,3.02h-5.6v-23.23h5.6c3.43,0,6.03,1.02,7.81,3.04,1.78,2.02,2.67,4.88,2.67,8.59s-.89,6.57-2.67,8.58Z"/>
    <path class="cls-1" d="M134.32,9.62C128.18,3.27,119.28.1,107.61.1h-25.29v72.93h25.19c11.73,0,20.67-3.17,26.81-9.52,6.14-6.34,9.21-15.31,9.21-26.89s-3.07-20.67-9.21-27ZM124.74,55.66c-3.94,4.45-9.71,6.67-17.34,6.67h-12.43V10.81h12.43c7.63,0,13.4,2.24,17.34,6.72,3.94,4.49,5.91,10.85,5.91,19.09s-1.97,14.58-5.91,19.04Z"/>
    <path class="cls-1" d="M149.39,73.03V.1h12.85v72.94h-12.85Z"/>
    <path class="cls-1" d="M198.03,73.03c-5.66,0-10.54-1.08-14.63-3.23-4.08-2.17-7.24-5.23-9.48-9.19-2.22-3.96-3.33-8.67-3.33-14.12V.1h12.47v45.98c0,4.73,1.32,8.59,3.98,11.58,2.67,2.99,6.33,4.49,10.99,4.49s8.2-1.46,10.83-4.38c2.63-2.92,3.94-6.85,3.94-11.78V.1h12.57v46.39c0,5.46-1.12,10.16-3.35,14.12-2.22,3.96-5.38,7.03-9.48,9.19-4.08,2.15-8.92,3.23-14.51,3.23Z"/>
  </g>
</svg>